<svg width="85" height="82" viewBox="0 0 85 82" fill="none" xmlns="http://www.w3.org/2000/svg">
<path d="M41.134 0.6008C18.7183 0.6008 0.481689 18.8374 0.481689 41.2531C0.481689 63.6688 18.7183 81.9054 41.134 81.9054C63.5497 81.9054 81.7863 63.6688 81.7863 41.2531C81.7863 36.6756 80.9894 32.286 79.5869 28.1761L73.0047 34.7582C73.4316 36.8559 73.6558 39.0294 73.6558 41.2531C73.6558 59.1848 59.0657 73.7749 41.134 73.7749C23.2023 73.7749 8.61215 59.1848 8.61215 41.2531C8.61215 23.3214 23.2023 8.73126 41.134 8.73126C47.7725 8.73126 53.9473 10.739 59.102 14.1701L64.9219 8.35014C58.2224 3.49626 50.0165 0.6008 41.134 0.6008ZM78.912 5.85701L37.0687 47.7003L23.6821 34.3136L17.9336 40.0621L37.0687 59.1973L84.6605 11.6055L78.912 5.85701Z" fill="#259441"/>
</svg>

