<?xml version="1.0" encoding="UTF-8"?>
<svg id="Calque_1" xmlns="http://www.w3.org/2000/svg" version="1.1" viewBox="0 0 96.4 141.7">
  <!-- Generator: Adobe Illustrator 29.8.2, SVG Export Plug-In . SVG Version: 2.1.1 Build 3)  -->
  <defs>
    <style>
      .st0 {
        fill: #fff;
      }

      .st1 {
        fill: #12314f;
      }

      .st1, .st2 {
        fill-rule: evenodd;
      }

      .st2 {
        fill: #f39200;
      }
    </style>
  </defs>
  <g id="Dark_Logos">
    <g id="Dark_100_x25_">
      <path class="st1" d="M81.7,54c0-5.6-.1-12-.1-18.5,0-18.6-15-33.7-33.6-33.7S14.3,16.8,14.3,35.4v18.6c-7.4.6-13.2,6.8-13.2,14.3v57.4c0,7.9,6.4,14.3,14.3,14.3h65.4c7.9,0,14.3-6.4,14.3-14.3v-57.4c0-7.6-6-13.9-13.5-14.3M48,16.1c10.6,0,19.3,8.7,19.3,19.3s0,12.9.1,18.5H28.7v-18.5c0-10.7,8.6-19.3,19.3-19.3"/>
      <polygon class="st0" points="48.2 60.7 47.2 63.7 44.2 63.7 46.6 65.6 45.7 68.6 48.2 66.8 50.7 68.6 49.8 65.6 52.2 63.7 49.2 63.7 48.2 60.7"/>
      <polygon class="st0" points="16.5 85.6 18.9 83.8 21.4 85.6 20.5 82.5 22.9 80.6 19.9 80.6 18.9 77.6 17.9 80.6 14.9 80.6 17.3 82.5 16.5 85.6"/>
      <polygon class="st0" points="20.8 111.9 19.8 108.8 18.8 111.9 15.8 111.9 18.2 113.8 17.3 116.8 19.8 115 22.3 116.8 21.4 113.8 23.8 111.9 20.8 111.9"/>
      <polygon class="st0" points="31 65.2 30 68.3 27 68.3 29.4 70.2 28.5 73.2 31 71.4 33.5 73.2 32.6 70.2 35 68.3 32 68.3 31 65.2"/>
      <polygon class="st0" points="32 123.9 31 120.9 30 123.9 27 123.9 29.4 125.8 28.5 128.9 31 127.1 33.5 128.9 32.6 125.8 35 123.9 32 123.9"/>
      <polygon class="st0" points="74.7 85.6 77.2 83.8 79.6 85.6 78.8 82.5 81.1 80.6 78.1 80.6 77.2 77.6 76.2 80.6 73.2 80.6 75.6 82.5 74.7 85.6"/>
      <polygon class="st0" points="78.1 111.9 77.2 108.8 76.2 111.9 73.2 111.9 75.6 113.8 74.7 116.8 77.2 115 79.6 116.8 78.8 113.8 81.1 111.9 78.1 111.9"/>
      <polygon class="st0" points="65.4 65.2 64.4 68.3 61.4 68.3 63.8 70.2 62.9 73.2 65.4 71.4 67.9 73.2 67 70.2 69.4 68.3 66.4 68.3 65.4 65.2"/>
      <polygon class="st0" points="66.4 122.8 65.4 119.7 64.4 122.8 61.4 122.8 63.8 124.7 62.9 127.7 65.4 125.9 67.9 127.7 67 124.7 69.4 122.8 66.4 122.8"/>
      <polygon class="st0" points="49.2 127.9 48.2 124.9 47.2 127.9 44.2 127.9 46.6 129.9 45.7 132.9 48.2 131.1 50.7 132.9 49.8 129.9 52.2 127.9 49.2 127.9"/>
      <polygon class="st0" points="84 95.5 81 95.5 80 92.5 79 95.5 76 95.5 78.4 97.5 77.6 100.5 80 98.7 82.5 100.5 81.6 97.5 84 95.5"/>
      <polygon class="st0" points="16.4 98.7 18.8 100.5 18 97.5 20.3 95.5 17.3 95.5 16.4 92.5 15.4 95.5 12.4 95.5 14.8 97.5 13.9 100.5 16.4 98.7"/>
      <path class="st2" d="M85.3,62.8c-2.7,1.5-7.7,5.6-15,12.1-6.8,6.1-14.8,13.7-23.7,22.6l-15.5-13.5-5.9,5.7c11.8,11.8,20.2,20.8,25.2,27.2,5.7-9.3,12-18.7,19.1-28.1,7-9.4,13.6-16.8,19.7-22.2-1.3-2.7-2.5-3.4-3.9-3.9"/>
    </g>
  </g>
</svg>

