<svg width="755" height="22" viewBox="0 0 755 22" fill="none" xmlns="http://www.w3.org/2000/svg">
<g clip-path="url(#clip0_60_26)">
<path d="M367.651 18.3968L365.128 19.9014L365.031 16.9587L372.563 3.15785L375.184 4.59603L367.651 18.3968Z" fill="#FAF5EB"/>
<path d="M367.504 18.316C367.512 18.3452 367.561 18.3582 367.581 18.3023L367.528 18.2258L367.504 18.316Z" fill="#202020"/>
<path d="M367.829 18.0451C367.827 17.9654 367.801 17.8612 367.713 17.8631C367.751 17.9614 367.713 17.9596 367.762 18.0706C367.742 18.1266 367.69 18.1473 367.668 18.1237C367.677 18.1523 367.609 18.1946 367.639 18.2476C367.733 18.2123 367.781 18.1288 367.782 18.0146C367.809 18.0048 367.818 18.0333 367.829 18.0451Z" fill="#202020"/>
<!-- omitted content for brevity -->
</g>
<defs>
<clipPath id="clip0_60_26">
<rect width="9.26434" height="19.9324" fill="white" transform="translate(367.14 0.306474) rotate(8.10805)"/>
</clipPath>
<clipPath id="clip1_60_26">
<rect width="365.27" height="1.14147" fill="white" transform="matrix(-1 0 0 1 366.106 19.443)"/>
</clipPath>
<clipPath id="clip2_60_26">
<rect width="365.27" height="1.14147" fill="white" transform="translate(388.741 19.443)"/>
</clipPath>
</defs>
</svg>

